<svg xmlns="http://www.w3.org/2000/svg" width="32" height="32" viewBox="0 0 32 32">
  <!-- 精修光标系列：手型（hand）。五指分节 + 指节缝 + 掌心受光。锚点 = 食指指尖 (14,3) -->
  <defs>
    <linearGradient id="hdSkinLit" gradientUnits="userSpaceOnUse" x1="10" y1="3" x2="16.5" y2="18">
      <stop offset="0" stop-color="#ffeed8"/>
      <stop offset="0.5" stop-color="#f8d2ab"/>
      <stop offset="1" stop-color="#e8b184"/>
    </linearGradient>
    <linearGradient id="hdSkin" gradientUnits="userSpaceOnUse" x1="10" y1="9" x2="29" y2="27">
      <stop offset="0" stop-color="#fbd9b4"/>
      <stop offset="0.52" stop-color="#efb98c"/>
      <stop offset="1" stop-color="#d99e6f"/>
    </linearGradient>
    <linearGradient id="hdSkinMid" gradientUnits="userSpaceOnUse" x1="4" y1="12" x2="12" y2="24">
      <stop offset="0" stop-color="#f7caa0"/>
      <stop offset="1" stop-color="#dca173"/>
    </linearGradient>
    <linearGradient id="hdSkinDeep" gradientUnits="userSpaceOnUse" x1="12" y1="22" x2="23" y2="30">
      <stop offset="0" stop-color="#e3ad7e"/>
      <stop offset="1" stop-color="#c1875a"/>
    </linearGradient>
  </defs>

  <!-- ═══ 并集形状：整体压线（只留外缘）→ 再逐面填充 ═══ -->
  <g class="ink-outline">
    <rect x="24" y="11.6" width="4.6" height="9" rx="2.3" fill="#1a1a2e" stroke="#1a1a2e" stroke-width="1.4" stroke-linejoin="round" stroke-linecap="round"/>
    <rect x="19.8" y="10.2" width="4.6" height="10.5" rx="2.3" fill="#1a1a2e" stroke="#1a1a2e" stroke-width="1.4" stroke-linejoin="round" stroke-linecap="round"/>
    <rect x="15.4" y="9.4" width="4.6" height="11" rx="2.3" fill="#1a1a2e" stroke="#1a1a2e" stroke-width="1.4" stroke-linejoin="round" stroke-linecap="round"/>
    <rect x="10.6" y="3.2" width="4.6" height="14" rx="2.3" fill="#1a1a2e" stroke="#1a1a2e" stroke-width="1.4" stroke-linejoin="round" stroke-linecap="round"/>
    <rect x="5.2" y="11.8" width="4.8" height="12.4" rx="2.4" transform="rotate(-22 7.6 18)" fill="#1a1a2e" stroke="#1a1a2e" stroke-width="1.4" stroke-linejoin="round" stroke-linecap="round"/>
    <rect x="11.4" y="14.2" width="17.2" height="10.4" rx="4.4" fill="#1a1a2e" stroke="#1a1a2e" stroke-width="1.4" stroke-linejoin="round" stroke-linecap="round"/>
    <rect x="12.6" y="21.5" width="10.2" height="7.6" rx="3.2" fill="#1a1a2e" stroke="#1a1a2e" stroke-width="1.4" stroke-linejoin="round" stroke-linecap="round"/>
  </g>
  <g class="ink-fill">
    <rect x="24" y="11.6" width="4.6" height="9" rx="2.3" fill="url(#hdSkin)"/>
    <rect x="19.8" y="10.2" width="4.6" height="10.5" rx="2.3" fill="url(#hdSkin)"/>
    <rect x="15.4" y="9.4" width="4.6" height="11" rx="2.3" fill="url(#hdSkin)"/>
    <rect x="10.6" y="3.2" width="4.6" height="14" rx="2.3" fill="url(#hdSkinLit)"/>
    <rect x="5.2" y="11.8" width="4.8" height="12.4" rx="2.4" transform="rotate(-22 7.6 18)" fill="url(#hdSkinMid)"/>
    <rect x="11.4" y="14.2" width="17.2" height="10.4" rx="4.4" fill="url(#hdSkin)"/>
    <rect x="12.6" y="21.5" width="10.2" height="7.6" rx="3.2" fill="url(#hdSkinDeep)"/>
  </g>

  <!-- ═══ 分面 / 材质 ═══ -->
  <ellipse cx="13.6" cy="17.8" rx="2.2" ry="3.6" opacity="0.22" transform="rotate(-18 13.6 17.8)" fill="#ffffff"/>

  <!-- ═══ 高光 / 缝隙 / 环境光遮蔽 ═══ -->
  <path d="M11.7 6.4 L11.7 14.8" stroke="#fff3e2" stroke-width="0.85" opacity="0.6" stroke-linecap="round" fill="none"/>
  <path d="M15.55 15.0 C15.45 16.4 15.55 17.6 15.75 18.8" stroke="#b5764a" stroke-width="0.6" opacity="0.5" fill="none"/>
  <path d="M19.95 15.4 C19.85 16.6 19.95 17.7 20.15 18.8" stroke="#b5764a" stroke-width="0.6" opacity="0.5" fill="none"/>
  <path d="M24.15 16.2 C24.05 17.2 24.15 18.2 24.35 19.2" stroke="#b5764a" stroke-width="0.6" opacity="0.5" fill="none"/>
  <path d="M9.2 17.6 C10.4 19.2 11.6 20.4 13.0 21.4" stroke="#c98a5e" stroke-width="0.7" opacity="0.5" fill="none"/>
  <path d="M12.9 25.6 C15.5 26.5 19.9 26.4 22.6 25.5" stroke="#c08a5f" stroke-width="0.75" opacity="0.6" fill="none"/>
</svg>
